<?xml version="1.0" encoding="UTF-8"?>
<svg version="1.1" xmlns="http://www.w3.org/2000/svg" width="48" height="48">
<path d="M0 0 C1.12019531 -0.00128906 2.24039062 -0.00257813 3.39453125 -0.00390625 C4.57402344 -0.00003906 5.75351562 0.00382813 6.96875 0.0078125 C8.73798828 0.00201172 8.73798828 0.00201172 10.54296875 -0.00390625 C12.22326172 -0.00197266 12.22326172 -0.00197266 13.9375 0 C14.97326172 0.00112793 16.00902344 0.00225586 17.07617188 0.00341797 C19.46875 0.1328125 19.46875 0.1328125 20.46875 1.1328125 C20.54054964 2.65209288 20.55267007 4.17448732 20.53125 5.6953125 C20.52222656 6.52160156 20.51320313 7.34789062 20.50390625 8.19921875 C20.49230469 8.83730469 20.48070313 9.47539062 20.46875 10.1328125 C21.768125 10.1121875 23.0675 10.0915625 24.40625 10.0703125 C25.76040633 10.04881796 27.11631083 10.06133051 28.46875 10.1328125 C29.46875 11.1328125 29.46875 11.1328125 29.58227539 13.54125977 C29.57703857 14.58338623 29.57180176 15.6255127 29.56640625 16.69921875 C29.56318359 17.82392578 29.55996094 18.94863281 29.55664062 20.10742188 C29.54407227 21.88342773 29.54407227 21.88342773 29.53125 23.6953125 C29.52673828 24.88318359 29.52222656 26.07105469 29.51757812 27.29492188 C29.50574675 30.24093476 29.48926287 33.18684931 29.46875 36.1328125 C28.68113281 35.32328125 27.89351562 34.51375 27.08203125 33.6796875 C22.94458582 30.23161367 18.85507825 30.39068355 13.65625 30.3828125 C11.94133628 30.34980898 10.22648131 30.31353327 8.51171875 30.2734375 C7.75914795 30.26860352 7.00657715 30.26376953 6.23120117 30.25878906 C4.46875 30.1328125 4.46875 30.1328125 3.46875 29.1328125 C3.39695036 27.61353212 3.38482993 26.09113768 3.40625 24.5703125 C3.41527344 23.74402344 3.42429687 22.91773437 3.43359375 22.06640625 C3.44519531 21.42832031 3.45679688 20.79023438 3.46875 20.1328125 C-0.54265606 21.50815172 -3.27829891 23.44297731 -6.53125 26.1328125 C-6.56011751 21.98699363 -6.57800327 17.84120034 -6.59375 13.6953125 C-6.60212891 12.51130859 -6.61050781 11.32730469 -6.61914062 10.10742188 C-6.62236328 8.98271484 -6.62558594 7.85800781 -6.62890625 6.69921875 C-6.63414307 5.65709229 -6.63937988 4.61496582 -6.64477539 3.54125977 C-6.43122622 -0.98919732 -3.95971296 0.00431207 0 0 Z " fill="#2095F2" transform="translate(12.53125,5.8671875)"/>
<path d="M0 0 C6.15234375 -0.09765625 6.15234375 -0.09765625 8 0 C9 1 9 1 9.11352539 3.40844727 C9.10828857 4.45057373 9.10305176 5.4927002 9.09765625 6.56640625 C9.09443359 7.69111328 9.09121094 8.81582031 9.08789062 9.97460938 C9.07951172 11.15861328 9.07113281 12.34261719 9.0625 13.5625 C9.05798828 14.75037109 9.05347656 15.93824219 9.04882812 17.16210938 C9.03699675 20.10812226 9.02051287 23.05403681 9 26 C8.21238281 25.19046875 7.42476562 24.3809375 6.61328125 23.546875 C2.47583582 20.09880117 -1.61367175 20.25787105 -6.8125 20.25 C-8.52741372 20.21699648 -10.24226869 20.18072077 -11.95703125 20.140625 C-12.70960205 20.13579102 -13.46217285 20.13095703 -14.23754883 20.12597656 C-16 20 -16 20 -17 19 C-17.07179964 17.48071962 -17.08392007 15.95832518 -17.0625 14.4375 C-17.05347656 13.61121094 -17.04445313 12.78492188 -17.03515625 11.93359375 C-17.02355469 11.29550781 -17.01195312 10.65742188 -17 10 C-15.92878906 9.93941406 -14.85757812 9.87882812 -13.75390625 9.81640625 C-12.35675609 9.73201463 -10.95962143 9.64736594 -9.5625 9.5625 C-8.50192383 9.50352539 -8.50192383 9.50352539 -7.41992188 9.44335938 C-3.91309581 9.52375562 -3.91309581 9.52375562 -1 8 C-0.76924918 6.65252916 -0.58846937 5.29622435 -0.4375 3.9375 C-0.293125 2.638125 -0.14875 1.33875 0 0 Z " fill="#1464C0" transform="translate(33,16)"/>
</svg>
